<svg width="62" height="61" viewBox="0 0 62 61" fill="none" xmlns="http://www.w3.org/2000/svg">
<path d="M22.6125 41.9375H19.5625V36.8542H24.6458L25.1542 38.7604C25.5354 40.4125 24.2646 41.9375 22.6125 41.9375Z" fill="#90CAF9"/>
<path d="M47.5208 45.75C47.5208 45.75 32.525 36.8542 24.6458 36.8542V19.0625C32.0166 19.0625 47.5208 10.1667 47.5208 10.1667V45.75Z" fill="#90CAF9"/>
<path d="M11.9375 34.3125C15.4468 34.3125 18.2916 31.4677 18.2916 27.9584C18.2916 24.449 15.4468 21.6042 11.9375 21.6042C8.42817 21.6042 5.58331 24.449 5.58331 27.9584C5.58331 31.4677 8.42817 34.3125 11.9375 34.3125Z" fill="#283593"/>
<path d="M51.3333 24.1459H47.5208V31.7709H51.3333C53.4937 31.7709 55.1458 30.1188 55.1458 27.9584C55.1458 25.798 53.4937 24.1459 51.3333 24.1459Z" fill="#283593"/>
<path d="M24.1375 52.3584C22.9938 53.1209 20.9604 53.8834 18.2917 54.1375C17.5292 54.2646 16.7667 53.7563 16.5125 52.8667L10.9208 35.4563C10.9208 35.4563 22.1042 27.5771 22.1042 36.8542C22.1042 43.8438 24.0104 47.5292 24.9 48.9271C25.5354 49.8167 25.5354 50.9605 24.9 51.85C24.6458 52.1042 24.3917 52.2313 24.1375 52.3584Z" fill="#283593"/>
<path d="M11.9375 36.8542H24.6458V19.0625H11.9375C10.5396 19.0625 9.39581 20.2062 9.39581 21.6042V34.3125C9.39581 35.7104 10.5396 36.8542 11.9375 36.8542Z" fill="#3F51B5"/>
<path d="M48.7917 48.2917C47.3937 48.2917 46.25 47.1479 46.25 45.75V10.1667C46.25 8.76875 47.3937 7.625 48.7917 7.625C50.1896 7.625 51.3333 8.76875 51.3333 10.1667V45.75C51.3333 47.1479 50.1896 48.2917 48.7917 48.2917Z" fill="#42A5F5"/>
</svg>
