<svg width="65" height="65" viewBox="0 0 65 65" fill="none" xmlns="http://www.w3.org/2000/svg">
<path d="M32.5 24.375C28.0962 24.375 24.375 28.0962 24.375 32.5C24.375 36.9037 28.0962 40.625 32.5 40.625C36.9037 40.625 40.625 36.9037 40.625 32.5C40.625 28.0962 36.9037 24.375 32.5 24.375Z" fill="#2877D3"/>
<path d="M54.1668 13.5416H47.163L39.8316 6.21017C39.5805 5.95818 39.282 5.75834 38.9534 5.62215C38.6248 5.48596 38.2725 5.41611 37.9168 5.41663H27.0834C26.7277 5.41611 26.3754 5.48596 26.0468 5.62215C25.7181 5.75834 25.4197 5.95818 25.1686 6.21017L17.8372 13.5416H10.8334C7.84612 13.5416 5.41675 15.971 5.41675 18.9583V48.7499C5.41675 51.7372 7.84612 54.1666 10.8334 54.1666H54.1668C57.1541 54.1666 59.5834 51.7372 59.5834 48.7499V18.9583C59.5834 15.971 57.1541 13.5416 54.1668 13.5416ZM32.5001 46.0416C25.1605 46.0416 18.9584 39.8395 18.9584 32.4999C18.9584 25.1604 25.1605 18.9583 32.5001 18.9583C39.8397 18.9583 46.0418 25.1604 46.0418 32.4999C46.0418 39.8395 39.8397 46.0416 32.5001 46.0416Z" fill="#2877D3"/>
</svg>
