<svg width="62" height="61" viewBox="0 0 62 61" fill="none" xmlns="http://www.w3.org/2000/svg">
<path d="M61.5 30.969C61.5 13.8725 47.836 0 31 0C14.164 0 0.5 13.8725 0.5 30.969C0.5 40.3853 4.709 48.8715 11.297 54.5677C11.358 54.6297 11.419 54.6297 11.419 54.6917C11.968 55.1257 12.517 55.5597 13.127 55.9937C13.432 56.1797 13.676 56.4239 13.981 56.6719C19.0214 60.1453 24.9713 62.0014 31.061 62C37.1507 62.0014 43.1006 60.1453 48.141 56.6719C48.446 56.4859 48.69 56.2418 48.995 56.0519C49.544 55.6218 50.154 55.1877 50.703 54.7537C50.764 54.6917 50.825 54.6917 50.825 54.6297C57.291 48.8676 61.5 40.3853 61.5 30.969ZM31 58.0979C25.266 58.0979 20.02 56.2379 15.689 53.1418C15.75 52.6458 15.872 52.1536 15.994 51.6576C16.3575 50.3134 16.8906 49.0226 17.58 47.8175C18.251 46.6395 19.044 45.5855 20.02 44.6555C20.935 43.7255 22.033 42.8614 23.131 42.1794C24.29 41.4974 25.51 41.0014 26.852 40.6294C28.2044 40.2589 29.5993 40.0725 31 40.0752C35.1581 40.0453 39.1634 41.6665 42.163 44.5935C43.566 46.0195 44.664 47.6935 45.457 49.6116C45.884 50.7276 46.189 51.9056 46.372 53.1418C41.8701 56.3586 36.5031 58.089 31 58.0979ZM21.667 29.4229C21.1295 28.1721 20.8592 26.8197 20.874 25.4549C20.874 24.0947 21.118 22.7307 21.667 21.4907C22.216 20.2507 22.948 19.1386 23.863 18.2086C24.778 17.2786 25.876 16.5385 27.096 15.9805C28.316 15.4225 29.658 15.1745 31 15.1745C32.403 15.1745 33.684 15.4225 34.904 15.9805C36.124 16.5385 37.222 17.2825 38.137 18.2086C39.052 19.1386 39.784 20.2546 40.333 21.4907C40.882 22.7307 41.126 24.0947 41.126 25.4549C41.126 26.8809 40.882 28.1829 40.333 29.419C39.8032 30.6407 39.059 31.7541 38.137 32.705C37.2011 33.6408 36.1057 34.3958 34.904 34.9331C32.3833 35.986 29.5557 35.986 27.035 34.9331C25.8333 34.3958 24.7379 33.6408 23.802 32.705C22.8787 31.768 22.1523 30.65 21.667 29.419V29.4229ZM49.971 49.9836C49.971 49.8596 49.91 49.7976 49.91 49.6736C49.3101 47.7339 48.4258 45.8971 47.287 44.2254C46.1472 42.5412 44.7463 41.0559 43.139 39.8272C41.9115 38.8886 40.5809 38.098 39.174 37.4712C39.8141 37.0421 40.4071 36.5445 40.943 35.9871C41.8524 35.0746 42.6511 34.0547 43.322 32.9491C44.673 30.6931 45.3707 28.0957 45.335 25.4549C45.3539 23.5 44.9803 21.5617 44.237 19.7586C43.5032 18.0212 42.4469 16.4438 41.126 15.1125C39.807 13.7951 38.2547 12.7433 36.551 12.0125C34.774 11.2584 32.8646 10.88 30.939 10.9004C29.0132 10.8812 27.1037 11.2609 25.327 12.0164C23.6085 12.7456 22.0525 13.8197 20.752 15.1745C19.4559 16.5136 18.421 18.0901 17.702 19.8206C16.9587 21.6237 16.5851 23.562 16.604 25.5169C16.604 26.8809 16.787 28.1829 17.153 29.419C17.519 30.721 18.007 31.899 18.678 33.0111C19.288 34.1271 20.142 35.1191 21.057 36.0491C21.606 36.6071 22.216 37.0992 22.887 37.5332C21.4757 38.1767 20.1447 38.9884 18.922 39.9513C17.336 41.1913 15.933 42.6754 14.774 44.2874C13.6236 45.9522 12.7384 47.7908 12.151 49.7356C12.09 49.8596 12.09 49.9836 12.09 50.0456C7.271 45.0895 4.282 38.4012 4.282 30.969C4.282 16.0425 16.299 3.84013 31 3.84013C45.701 3.84013 57.718 16.0425 57.718 30.969C57.71 38.0988 54.9247 44.9354 49.971 49.9836Z" fill="#11026D"/>
</svg>
