<svg width="61" height="61" viewBox="0 0 61 61" fill="none" xmlns="http://www.w3.org/2000/svg">
<path d="M49.5625 57.1875H11.4375C11.4375 57.1875 7.625 57.0604 7.625 47.0208H53.375C53.375 57.0604 49.5625 57.1875 49.5625 57.1875Z" fill="#42A5F5"/>
<path d="M10.1667 3.8125H50.8334V47.0208H10.1667V3.8125Z" fill="#90CAF9"/>
<path d="M22.875 19.0625H43.2083V21.6042H22.875V19.0625Z" fill="#1976D2"/>
<path d="M22.875 24.1458H43.2083V26.6875H22.875V24.1458Z" fill="#1976D2"/>
<path d="M22.875 29.2292H43.2083V31.7708H22.875V29.2292Z" fill="#1976D2"/>
<path d="M22.875 34.3125H43.2083V36.8542H22.875V34.3125Z" fill="#1976D2"/>
<path d="M22.875 39.3958H43.2083V41.9375H22.875V39.3958Z" fill="#1976D2"/>
<path d="M17.7917 19.0625H20.3334V21.6042H17.7917V19.0625Z" fill="#1976D2"/>
<path d="M17.7917 24.1458H20.3334V26.6875H17.7917V24.1458Z" fill="#1976D2"/>
<path d="M17.7917 29.2292H20.3334V31.7708H17.7917V29.2292Z" fill="#1976D2"/>
<path d="M17.7917 34.3125H20.3334V36.8542H17.7917V34.3125Z" fill="#1976D2"/>
<path d="M17.7917 39.3958H20.3334V41.9375H17.7917V39.3958Z" fill="#1976D2"/>
</svg>
