<svg width="54" height="61" viewBox="0 0 54 61" fill="none" xmlns="http://www.w3.org/2000/svg">
<g clip-path="url(#clip0)">
<path d="M27 0C16.4889 0 7.9375 8.55144 7.9375 19.0625V24.7812H5.07812C3.81467 24.7828 2.60339 25.2853 1.70999 26.1787C0.816591 27.0721 0.314013 28.2834 0.3125 29.5469L0.3125 56.2344C0.3125 58.8612 2.45131 61 5.07812 61H48.9219C51.5487 61 53.6875 58.8612 53.6875 56.2344V29.5469C53.6875 26.9201 51.5487 24.7812 48.9219 24.7812H46.0625V19.0625C46.0625 8.55144 37.5111 0 27 0ZM9.84375 19.0625C9.84375 9.60369 17.5412 1.90625 27 1.90625C36.4588 1.90625 44.1562 9.60369 44.1562 19.0625V24.7812H38.4375V19.0625C38.4375 12.7547 33.3078 7.625 27 7.625C20.6922 7.625 15.5625 12.7547 15.5625 19.0625V24.7812H9.84375V19.0625ZM36.5312 24.7812H17.4688V19.0625C17.4688 13.807 21.7445 9.53125 27 9.53125C32.2555 9.53125 36.5312 13.807 36.5312 19.0625V24.7812ZM23.746 40.0312L14.2148 49.5625H5.47272L15.004 40.0312H23.746ZM35.1835 40.0312L25.6523 49.5625H16.9102L26.4415 40.0312H35.1835ZM46.621 40.0312L37.0898 49.5625H28.3477L37.879 40.0312H46.621ZM51.7812 40.0312V49.5625H39.7852L49.3165 40.0312H51.7812ZM2.77728 49.5625H2.21875V40.0312H12.3085L2.77728 49.5625V49.5625ZM48.9219 59.0938H5.07812C3.50166 59.0938 2.21875 57.8108 2.21875 56.2344V51.4688H51.7812V56.2344C51.7812 57.8108 50.4983 59.0938 48.9219 59.0938ZM51.7812 29.5469V38.125H2.21875V29.5469C2.21875 27.9704 3.50166 26.6875 5.07812 26.6875H48.9219C50.4983 26.6875 51.7812 27.9704 51.7812 29.5469Z" fill="#C0D000"/>
</g>
<defs>
<clipPath id="clip0">
<rect width="53.38" height="61" fill="white" transform="translate(0.309998)"/>
</clipPath>
</defs>
</svg>
