<svg width="69" height="69" viewBox="0 0 69 69" fill="none" xmlns="http://www.w3.org/2000/svg">
<path d="M55.75 42.9779H43V38.7279H55.75V42.9779Z" fill="#333333"/>
<path d="M64.25 59.9779H51.5V55.7279H64.25V59.9779Z" fill="#333333"/>
<path d="M60 51.4779H47.25V47.2279H60V51.4779Z" fill="#333333"/>
<path d="M36.6315 42.9779C36.6165 41.1849 36.1382 39.4261 35.2432 37.8724C34.3481 36.3187 33.0666 35.0227 31.523 34.1103L47.2501 6.85291L43.5738 4.72791L27.4727 32.6207C25.4967 32.1792 23.4415 32.2403 21.4951 32.7982C19.5488 33.3562 17.7734 34.3932 16.3313 35.8145C8.37533 43.4879 8.99158 61.4272 9.02133 62.1879C9.0433 62.7366 9.27684 63.2555 9.673 63.6359C10.0692 64.0162 10.5972 64.2283 11.1463 64.2279H43.0022C43.4482 64.2279 43.8829 64.0876 44.2447 63.8268C44.6065 63.566 44.8771 63.198 45.0182 62.7749C45.1592 62.3518 45.1635 61.895 45.0305 61.4693C44.8976 61.0436 44.634 60.6705 44.2772 60.4029C36.7547 54.7589 36.6315 43.0927 36.6315 42.9779ZM25.8513 36.5965C27.5521 36.6152 29.1802 37.2889 30.3969 38.4775C31.6136 39.6661 32.3252 41.278 32.3836 42.9779C32.3836 43.0587 32.3878 43.4199 32.4197 43.9745L19.8822 38.3985C20.7081 37.7175 21.6611 37.2075 22.6858 36.8982C23.7106 36.5888 24.7866 36.4863 25.8513 36.5965ZM33.3313 59.9779C31.6328 58.2484 30.5501 56.0084 30.2501 53.6029H26.0001C26.1523 55.8645 26.8587 58.0539 28.0571 59.9779H23.3332C22.4593 57.2201 21.9276 54.3654 21.7501 51.4779H17.5001C17.6371 54.3568 18.1114 57.2096 18.9132 59.9779H13.2501C13.316 56.0764 13.8663 47.4574 17.0815 41.8028L33.0891 48.9215C33.8582 52.9151 35.4979 56.69 37.8916 59.9779H33.3313Z" fill="#333333"/>
</svg>
