<svg width="61" height="62" viewBox="0 0 61 62" fill="none" xmlns="http://www.w3.org/2000/svg">
<path d="M30.5 1.72C14.3259 1.72 1.21698 14.8289 1.21698 31C1.21658 34.8456 1.97373 38.6537 3.4452 42.2066C4.91667 45.7596 7.07363 48.9879 9.79289 51.7071C12.5122 54.4264 15.7405 56.5834 19.2934 58.0548C22.8464 59.5263 26.6544 60.2835 30.5 60.2831C46.6681 60.2831 59.78 47.1742 59.78 31C59.78 14.8289 46.6681 1.72 30.5 1.72ZM33.2328 12.2913C36.0876 12.2913 36.9264 13.9475 36.9264 15.8415C36.9264 18.2053 35.0354 20.3921 31.8054 20.3921C29.1031 20.3921 27.816 19.0349 27.8953 16.787C27.8953 14.893 29.4783 12.2913 33.2328 12.2913ZM25.9189 48.5375C23.9669 48.5375 22.5426 47.3511 23.9059 42.1508L26.1416 32.9246C26.5289 31.4484 26.593 30.8567 26.1416 30.8567C25.559 30.8567 23.0245 31.8754 21.53 32.8819L20.557 31.2867C25.2998 27.3248 30.7532 25.0007 33.0864 25.0007C35.0384 25.0007 35.3617 27.3065 34.3888 30.8567L31.8268 40.5557C31.3723 42.2698 31.5675 42.8615 32.022 42.8615C32.6076 42.8615 34.523 42.1539 36.4079 40.6685L37.512 42.1508C32.8973 46.7624 27.8679 48.5375 25.9189 48.5375Z" fill="#05C73B"/>
</svg>
