<svg width="30" height="35" viewBox="0 0 30 35" fill="none" xmlns="http://www.w3.org/2000/svg">
<path d="M11.099 2.67919C11.9047 1.93544 13.4512 1.5625 14.9999 1.5625C16.5477 1.5625 18.0941 1.93491 18.8999 2.67866V14.0527H11.0985V2.67919H11.099Z" fill="black"/>
<path d="M2.63251 15.1487L2.38313 15.2996C2.6297 9.83832 4.81735 5.45285 10.342 3.93719L10.3416 13.14C7.13392 13.4992 4.41704 14.2142 2.63251 15.1487Z" fill="black"/>
<path d="M19.658 13.14L19.6571 3.93719C25.1827 5.45285 27.3704 9.83832 27.6169 15.3001L27.3676 15.1492C25.5826 14.2142 22.8657 13.4992 19.658 13.14Z" fill="black"/>
<path d="M2.8125 19.352V17.5H0.9375C0.9375 16.7855 1.42125 16.1103 2.26547 15.502C3.36375 15.1971 6.54328 14.3731 10.3416 13.9438V14.856H19.658V13.9438C23.4572 14.3731 26.6386 15.1965 27.735 15.5031C28.5792 16.1103 29.0625 16.7855 29.0625 17.5H27.1875V19.352C27.8925 19.7276 28.5938 20.576 28.5938 22.2813C28.5938 24.3962 27.5147 25.2063 26.6888 25.4119C26.123 29.8686 17.7731 33.4375 15 33.4375C12.2269 33.4375 3.87703 29.8686 3.31125 25.4119C2.48531 25.2063 1.40625 24.3962 1.40625 22.2813C1.40625 20.576 2.1075 19.7276 2.8125 19.352ZM3.75 24.4063H4.21875V24.9375C4.21875 28.6759 12.1458 32.375 15 32.375C17.8542 32.375 25.7812 28.6759 25.7812 24.9375V24.4063H26.25C26.3072 24.4063 27.6562 24.3818 27.6562 22.2813C27.6562 20.2445 26.3902 20.1595 26.25 20.1563H25.7812V17.5H4.21875V20.1563H3.75C3.69281 20.1563 2.34375 20.1807 2.34375 22.2813C2.34375 24.3181 3.60984 24.4031 3.75 24.4063Z" fill="black"/>
<path d="M18.2812 20.984C18.2812 20.6907 18.3342 20.4139 18.4195 20.1542C17.9367 20.551 17.5481 21.0849 17.3438 21.7798C17.3438 17.5308 23.9062 17.5308 23.9062 21.2496C23.6006 20.3826 22.8928 19.8046 22.0486 19.522C22.3395 19.9381 22.4985 20.453 22.5 20.984C22.5 21.618 22.2778 22.2261 21.8822 22.6744C21.4866 23.1227 20.9501 23.3746 20.3906 23.3746C19.8312 23.3746 19.2947 23.1227 18.8991 22.6744C18.5035 22.2261 18.2812 21.618 18.2812 20.984Z" fill="black"/>
<path d="M12.6562 21.7798C12.4519 21.0849 12.0633 20.551 11.5805 20.1542C11.6701 20.4191 11.717 20.7002 11.7188 20.984C11.7188 21.618 11.4965 22.2261 11.1009 22.6744C10.7053 23.1227 10.1688 23.3746 9.60938 23.3746C9.04993 23.3746 8.51341 23.1227 8.11782 22.6744C7.72224 22.2261 7.5 21.618 7.5 20.984C7.50155 20.4531 7.66054 19.9381 7.95141 19.522C7.10719 19.8046 6.39937 20.3826 6.09375 21.2496C6.09375 17.5308 12.6562 17.5308 12.6562 21.7798Z" fill="black"/>
<path d="M11.2031 26.9073H18.7964C19.2183 26.9073 19.2183 27.3626 19.2183 27.3626C19.2183 29.1848 17.1089 30.0948 14.9995 30.0948C12.8901 30.0948 10.7808 29.1848 10.7808 27.3626C10.7808 27.3626 10.7812 26.9073 11.2031 26.9073Z" fill="black"/>
</svg>
